<mxfile host="app.diagrams.net" modified="2023-06-07T10:38:28.414Z" agent="Mozilla/5.0 (Macintosh; Intel Mac OS X 10_15_7) AppleWebKit/537.36 (KHTML, like Gecko) Chrome/114.0.0.0 Safari/537.36" etag="tG6TPUxYrGmtkOngW7dl" version="21.3.7" type="github">
  <diagram name="Seite-1" id="srk_kNZ298-WKb-UGRPL">
    <mxGraphModel dx="984" dy="607" grid="1" gridSize="10" guides="1" tooltips="1" connect="1" arrows="1" fold="1" page="1" pageScale="1" pageWidth="827" pageHeight="1169" math="0" shadow="0">
      <root>
        <mxCell id="0" />
        <mxCell id="1" parent="0" />
        <mxCell id="sZ_1qn_T3DuW1jLiiuC9-3" value="" style="edgeStyle=orthogonalEdgeStyle;rounded=0;orthogonalLoop=1;jettySize=auto;html=1;" edge="1" parent="1" source="sZ_1qn_T3DuW1jLiiuC9-1" target="sZ_1qn_T3DuW1jLiiuC9-2">
          <mxGeometry relative="1" as="geometry" />
        </mxCell>
        <mxCell id="sZ_1qn_T3DuW1jLiiuC9-6" style="edgeStyle=orthogonalEdgeStyle;rounded=0;orthogonalLoop=1;jettySize=auto;html=1;" edge="1" parent="1" source="sZ_1qn_T3DuW1jLiiuC9-8" target="sZ_1qn_T3DuW1jLiiuC9-4">
          <mxGeometry relative="1" as="geometry">
            <Array as="points">
              <mxPoint x="350" y="450" />
            </Array>
          </mxGeometry>
        </mxCell>
        <mxCell id="sZ_1qn_T3DuW1jLiiuC9-1" value="Satelliten-Daten&lt;br&gt;(z.B. Sentinel 2)" style="rounded=0;whiteSpace=wrap;html=1;" vertex="1" parent="1">
          <mxGeometry x="120" y="160" width="120" height="60" as="geometry" />
        </mxCell>
        <mxCell id="sZ_1qn_T3DuW1jLiiuC9-2" value="Bestandes-Informationen" style="rounded=0;whiteSpace=wrap;html=1;" vertex="1" parent="1">
          <mxGeometry x="120" y="400" width="120" height="60" as="geometry" />
        </mxCell>
        <mxCell id="sZ_1qn_T3DuW1jLiiuC9-4" value="Bodeninformationen" style="rounded=0;whiteSpace=wrap;html=1;" vertex="1" parent="1">
          <mxGeometry x="300" y="400" width="120" height="60" as="geometry" />
        </mxCell>
        <mxCell id="sZ_1qn_T3DuW1jLiiuC9-7" style="edgeStyle=orthogonalEdgeStyle;rounded=0;orthogonalLoop=1;jettySize=auto;html=1;entryX=1;entryY=0.25;entryDx=0;entryDy=0;" edge="1" parent="1" source="sZ_1qn_T3DuW1jLiiuC9-5" target="sZ_1qn_T3DuW1jLiiuC9-4">
          <mxGeometry relative="1" as="geometry" />
        </mxCell>
        <mxCell id="sZ_1qn_T3DuW1jLiiuC9-5" value="Bodenschätzkarten der Länder" style="rounded=0;whiteSpace=wrap;html=1;" vertex="1" parent="1">
          <mxGeometry x="460" y="160" width="120" height="60" as="geometry" />
        </mxCell>
        <mxCell id="sZ_1qn_T3DuW1jLiiuC9-9" value="" style="edgeStyle=orthogonalEdgeStyle;rounded=0;orthogonalLoop=1;jettySize=auto;html=1;" edge="1" parent="1" source="sZ_1qn_T3DuW1jLiiuC9-1" target="sZ_1qn_T3DuW1jLiiuC9-8">
          <mxGeometry relative="1" as="geometry">
            <mxPoint x="240" y="210" as="sourcePoint" />
            <mxPoint x="460" y="300" as="targetPoint" />
            <Array as="points" />
          </mxGeometry>
        </mxCell>
        <mxCell id="sZ_1qn_T3DuW1jLiiuC9-8" value="Textur-Modell (z.B. Gasmi et al. 2022)" style="rounded=0;whiteSpace=wrap;html=1;" vertex="1" parent="1">
          <mxGeometry x="280" y="270" width="120" height="60" as="geometry" />
        </mxCell>
      </root>
    </mxGraphModel>
  </diagram>
</mxfile>
